# xmcd
#
# Track frame offsets:
#	150
#	19131
#	39530
#	57741
#	77343
#	99187
#	120117
#	142538
#	162651
#	178059
#	204246
#	226836
#	244185
#	257821
#
# Disc length: 4040 seconds
#
# Revision: 1
# Processed by: cddbd v1.5.2PL0 Copyright (c) Steve Scherf et al.
# Submitted via: EZCDAudioConverter 4.0.4.2
#
DISCID=a90fc60e
DTITLE=Heybale - ContinentaLive
DYEAR=2002
DGENRE=country
TTITLE0=Honky-Tonk Revisited
TTITLE1=Sittin' And Thinkin'
TTITLE2=Apt. #9
TTITLE3=I'll Sail My Ship Alone
TTITLE4=Good Deal Lucille
TTITLE5=Remember Me
TTITLE6=Sally Goodin'
TTITLE7=Farewell Party
TTITLE8=Who Will Buy The Wine
TTITLE9=King Of The Road
TTITLE10=C'est La Vie
TTITLE11=Walk Through This World With Me
TTITLE12=Motel Time Again
TTITLE13=Truck Drivin' Man
EXTD=
EXTT0=
EXTT1=
EXTT2=
EXTT3=
EXTT4=
EXTT5=
EXTT6=
EXTT7=
EXTT8=
EXTT9=
EXTT10=
EXTT11=
EXTT12=
EXTT13=
PLAYORDER=
